<svg xmlns="http://www.w3.org/2000/svg" viewBox="0 0 413.73 302.26"><defs><style>.cls-1{fill:#ea483d;}.cls-2{fill:#1a1a1a;}.cls-3{fill:none;stroke:#000;stroke-miterlimit:10;}.cls-4{fill:#c76a9b;}.cls-5{fill:#fadd49;}.cls-6{fill:#fff;}</style></defs><g id="Calque_2" data-name="Calque 2"><g id="sv"><path d="M121,63.57H109.25a4.8,4.8,0,0,1-4.79-4.79v-7.6a4.8,4.8,0,0,1,4.79-4.8H121a4.8,4.8,0,0,1,4.79,4.8v7.6A4.8,4.8,0,0,1,121,63.57ZM109.25,48.38a2.8,2.8,0,0,0-2.79,2.8v7.6a2.79,2.79,0,0,0,2.79,2.79H121a2.79,2.79,0,0,0,2.79-2.79v-7.6a2.8,2.8,0,0,0-2.79-2.8Z"/><rect class="cls-1" x="304.47" width="71.4" height="50.22" rx="11.63"/><path d="M359,9.56H310.86a12.65,12.65,0,0,0-12.63,12.63v27a12.64,12.64,0,0,0,12.63,12.63H344.8v-2H310.86a10.64,10.64,0,0,1-10.63-10.63v-27a10.64,10.64,0,0,1,10.63-10.63H359a10.64,10.64,0,0,1,10.63,10.63V41.75h2V22.19A12.64,12.64,0,0,0,359,9.56Z"/><path d="M275.51,94H259.16v2h16.35A19.51,19.51,0,0,1,295,115.51V134a19.51,19.51,0,0,1-19.49,19.49H192.94A19.52,19.52,0,0,1,173.44,134V115.51A19.52,19.52,0,0,1,192.94,96h25.52V94H192.94a21.52,21.52,0,0,0-21.5,21.49V134a21.52,21.52,0,0,0,21.5,21.49h82.57A21.51,21.51,0,0,0,297,134V115.51A21.51,21.51,0,0,0,275.51,94Z"/><rect class="cls-2" x="202.54" y="115.25" width="36.74" height="2.43"/><rect class="cls-2" x="249.1" y="115.76" width="15.55" height="2.43"/><rect class="cls-2" x="202.54" y="132.52" width="36.74" height="2.43"/><line class="cls-3" x1="218.46" y1="96.02" x2="218.46" y2="94.02"/><line class="cls-3" x1="259.16" y1="94.02" x2="259.16" y2="96.02"/><rect class="cls-1" x="180.63" y="184.92" width="24.73" height="24.73"/><path d="M344.87,250.8h-27.2V223.6h27.2Zm-25.2-2h23.2V225.6h-23.2Z"/><rect class="cls-4" x="331.27" y="212.79" width="27.2" height="27.2"/><path d="M198.64,205.46h-27.2v-27.2h27.2Zm-25.2-2h23.2v-23.2h-23.2Z"/><path d="M145.23,102.28a28.69,28.69,0,0,1-6.64-.71l.51-1.94c.11,0,11.58,2.88,21.48-3.89,7.82-5.34,12.63-15.11,14.3-29l2,.23c-1.74,14.54-6.85,24.79-15.17,30.47A29.07,29.07,0,0,1,145.23,102.28Z"/><path d="M54.77,57.91c0-.28-2.61-28.22,24.65-34.58a24.62,24.62,0,0,1,7.94-.9C107,24.25,113.17,37.18,114.91,47.7l-2,.32c-2.36-14.29-11-22.23-25.76-23.6a23.39,23.39,0,0,0-7.3.85c-25.52,6-23.23,31.36-23.12,32.44Z"/><path d="M55.74,56.07a6.5,6.5,0,1,0,6.5,6.5A6.51,6.51,0,0,0,55.74,56.07Zm0,11a4.5,4.5,0,1,1,4.5-4.5A4.51,4.51,0,0,1,55.74,67.07Z"/><circle class="cls-1" cx="55.74" cy="62.57" r="4.5"/><path d="M176.86,54.82a7,7,0,1,0,7,7A7,7,0,0,0,176.86,54.82Zm0,12a5,5,0,1,1,5-5A5,5,0,0,1,176.86,66.82Z"/><circle class="cls-5" cx="176.86" cy="61.82" r="5"/><path d="M390.78,302.26H81a23,23,0,0,1-23-22.95V95.48a23,23,0,0,1,23-23H390.78a23,23,0,0,1,23,23V279.31A23,23,0,0,1,390.78,302.26ZM81,74.53a21,21,0,0,0-21,21V279.31a21,21,0,0,0,21,20.95H390.78a21,21,0,0,0,21-20.95V95.48a21,21,0,0,0-21-21Z"/><polygon class="cls-4" points="115.38 57.81 94.77 99.66 103.84 122.45 128.81 122.45 137.24 98.41 115.38 57.81"/><path d="M129.34,123.21h-26L93.94,99.63l21.41-43.46,22.71,42.17Zm-25-1.5h23.92l8.15-23.24-21-39L95.59,99.69Z"/><circle class="cls-6" cx="116" cy="96.69" r="6.56"/><path d="M116,104a7.31,7.31,0,1,1,7.31-7.31A7.32,7.32,0,0,1,116,104Zm0-13.12a5.81,5.81,0,1,0,5.81,5.81A5.82,5.82,0,0,0,116,90.88Z"/><rect class="cls-2" x="100.61" y="124.17" width="30.41" height="10.77" rx="5.39"/><path d="M132.36,276.61H18.68A18.7,18.7,0,0,1,0,257.93V194.7A18.7,18.7,0,0,1,18.68,176H132.36A18.7,18.7,0,0,1,151,194.7v63.23A18.7,18.7,0,0,1,132.36,276.61ZM18.68,178A16.7,16.7,0,0,0,2,194.7v63.23a16.7,16.7,0,0,0,16.68,16.68H132.36A16.7,16.7,0,0,0,149,257.93V194.7A16.7,16.7,0,0,0,132.36,178Z"/><path class="cls-2" d="M150,194.7v7.41H1V194.7A17.67,17.67,0,0,1,18.68,177H132.36A17.68,17.68,0,0,1,150,194.7Z"/><circle class="cls-6" cx="18.25" cy="190.68" r="3.29"/><circle class="cls-6" cx="28.39" cy="190.68" r="3.29"/><circle class="cls-6" cx="38.24" cy="190.68" r="3.29"/><rect class="cls-5" x="9.26" y="206.67" width="130.54" height="59.9" rx="8.52"/><rect class="cls-6" x="90.29" y="214.51" width="39.66" height="43.4"/><rect class="cls-6" x="17.75" y="245.6" width="44.49" height="3.32"/><rect class="cls-6" x="17.75" y="251.82" width="44.49" height="3.32"/><path class="cls-4" d="M97.9,246a.74.74,0,0,1,.76.75.76.76,0,1,1-1.51,0A.74.74,0,0,1,97.9,246Zm16.61-10.57a.76.76,0,1,1-.76.76A.75.75,0,0,1,114.51,235.45Zm-9.06,0a.76.76,0,1,1-.76.76A.75.75,0,0,1,105.45,235.45Zm16.6-10.56a.75.75,0,1,1-.75.75A.74.74,0,0,1,122.05,224.89Zm0-1.51a2.27,2.27,0,0,0-2.26,2.26,2.24,2.24,0,0,0,.43,1.32L115.08,234a2.12,2.12,0,0,0-.57-.08,2.29,2.29,0,0,0-2.13,1.51h-4.81a2.26,2.26,0,1,0-3.95,2.08l-5.14,7.06A2.26,2.26,0,1,0,97.9,249a2.28,2.28,0,0,0,2.27-2.26,2.25,2.25,0,0,0-.44-1.32l5.13-7.06a2.25,2.25,0,0,0,2.72-1.43h4.79a2.26,2.26,0,0,0,4.4-.75,2.21,2.21,0,0,0-.44-1.33l5.13-7.06a2.33,2.33,0,0,0,.59.08,2.26,2.26,0,1,0,0-4.52Z"/><rect class="cls-5" x="216.48" y="203.46" width="65.24" height="53.26"/><rect class="cls-6" x="225.2" y="213.55" width="30.21" height="4.18"/><rect class="cls-6" x="225.2" y="220.86" width="30.21" height="4.18"/><rect class="cls-6" x="225.2" y="228.16" width="30.21" height="2.09"/><rect class="cls-6" x="225.2" y="239.73" width="30.21" height="2.09"/><rect class="cls-6" x="260.71" y="213.01" width="16.48" height="12.03"/></g></g></svg>