<svg xmlns="http://www.w3.org/2000/svg" xmlns:xlink="http://www.w3.org/1999/xlink" viewBox="0 0 1231.1 1231.1"><defs><style>.cls-1{fill:none;}.cls-12,.cls-16,.cls-2{isolation:isolate;}.cls-3{clip-path:url(#clip-path);}.cls-17,.cls-4{fill:#fff;}.cls-5,.cls-6{fill:#93614a;}.cls-6{opacity:0.35;mix-blend-mode:multiply;}.cls-7{fill:#0e399e;}.cls-8{fill:#0b2c6d;}.cls-9{fill:#652e15;}.cls-10{fill:url(#Dégradé_sans_nom_6);}.cls-11{fill:#4d3623;}.cls-12{opacity:0.9;}.cls-13{fill:url(#Dégradé_sans_nom_6-2);}.cls-14{fill:#2a232b;}.cls-15{fill:#844e35;}.cls-16{fill:#b28e7d;opacity:0.2;}.cls-17{opacity:0.34;}.cls-18{fill:url(#Dégradé_sans_nom_7);}</style><clipPath id="clip-path"><circle class="cls-1" cx="615.55" cy="615.55" r="557.85"/></clipPath><radialGradient id="Dégradé_sans_nom_6" cx="121.86" cy="833.55" r="17.13" gradientTransform="matrix(3.18, 0, 0, -3.18, 333.52, 3184.38)" gradientUnits="userSpaceOnUse"><stop offset="0" stop-color="#fff"/><stop offset="0.54" stop-color="#fdfefe"/><stop offset="0.74" stop-color="#f6f8f9"/><stop offset="0.88" stop-color="#eaeff2"/><stop offset="0.99" stop-color="#d9e3e8"/><stop offset="1" stop-color="#d8e2e7"/></radialGradient><radialGradient id="Dégradé_sans_nom_6-2" cx="111.91" cy="833.55" r="17.13" gradientTransform="matrix(-3.18, 0, 0, -3.18, 864.18, 3184.38)" xlink:href="#Dégradé_sans_nom_6"/><linearGradient id="Dégradé_sans_nom_7" x1="1050.81" y1="1050.81" x2="180.29" y2="180.29" gradientUnits="userSpaceOnUse"><stop offset="0" stop-color="#ed9857"/><stop offset="1" stop-color="#ef5d64"/></linearGradient></defs><g class="cls-2"><g id="Calque_2" data-name="Calque 2"><g id="laura"><g class="cls-3"><rect class="cls-4" x="59.36" y="48.46" width="1114.04" height="1134.19"/><path id="hair_back" d="M990.21,694.28a20.09,20.09,0,0,0-2.21-5c-5.76-10.38-20.46-29.67-20.46-29.67s-9.34-12-4-17.34,8-16,8-16,6.67-4-4-18.68a118.2,118.2,0,0,0-21.35-22.68c-1.33-1.33,2.67-2.66-1.33-9.33s-1.34-5.34-5.34-16-5.33-17.34-8-17.34-4-8-6.67-12-2.67-13.34-5.34-18.68-13.34-9.33-10.67-14.67-2.67-16-2.67-16,4-8,1.33-16-6.67-21.34-6.67-24-8-6.67-5.33-8,4-10.67,2.67-13.34-8-14.68-9.34-17.34-2.67-13.34-4-14.68a28.33,28.33,0,0,1-5.34-9.34c-1.33-4-5.34-9.33-4-18.67s4-10.67,0-14.68,0-21.34-4-24l-8-5.33s1.34-10.68,0-16-2.67-9.34-6.67-10.67-5.33-6.67-6.67-10.68-10.67-5.33-14.67-4-1.34-8-5.34-10.67-4-6.67-8-10.67-14.68-22.68-22.68-26.68-25.35-12-26.68-13.34-5.34-9.34-9.34-13.34-17.34-14.68-33.35-22.68-14.67-9.34-18.67-10.67-10.68,1.33-12,0-6.67-6.67-10.67-5.34-5.34-1.33-12-2.67-10.67-2.67-14.67-2.67-13.34-2.66-16,0-1.33,2.67-6.67,2.67-17.34,6.67-24,16c-6.67,2.67-8,8-12,4s-4-6.67-9.34-8-6.67-2.67-9.33-5.34-6.67-4-13.34-2.67-6.67,2.67-13.34,4-10.68,0-12,5.33,2.67,4-2.67,9.34S536.65,182,530,186s-8,6.67-13.34,8-8,2.67-12,2.67-5.33-12-22.67-9.34-21.35-8-30.69,0-2.66,10.67-12,9.34-13.34-6.67-24-6.67-14.68,2.67-26.68,8-40,40-45.36,61.37-14.67,9.34-18.68,17.34-1.33,12-5.33,17.34-10.67,10.67-10.67,21.35,2.66,17.34,2.66,17.34-18.67,37.35-9.33,42.69,0,22.67-2.67,28-9.34,21.34-10.67,25.35-2.67,21.34-10.68,34.68,2.67,22.68-5.33,34.68-14.68,24-14.68,24l-12,21.34s-5.34,9.34,1.33,13.34,6.67-18.68,13.34-21.34,9.34-10.68,9.34-10.68l8-17.34s4-52,12-48,12,4,12,4,5.33,16-1.34,26.68-10.67,2.67-10.67,29.35-1.33,36-1.33,36-8-4-4,20,2.67,60-2.66,62.7-1.34,18.67-1.34,18.67,7.73,15.93,10.41,32.34a54.33,54.33,0,0,1,.57,15.81c-2.67,20-10.67,21.34-1.33,26.68s13.34-8,13.34-8,1.33-21.34,6.67-17.34,22.63-3.8,25.3,12.21,16.46,17.34,13.8,28-1.34,1.33-4,18.68-1.33,21.34,1.34,28,4,4-1.34,16,8,34.68,14.68,21.34,6.67-13.34,8-22.68,0-21.34,8-24,13.34-18.67,9.33-22.68S383.67,735.68,393,733s29.41,36.23,26.74,53.57-14.67,26.68-2.67,30.69,31.09-22.62,36.42-19.95,10.27,13.32,6.27,18.65-29.35,32-22.68,40,13.34,18.68,14.68,9.34-4-12,1.33-16,30.47-28.41,33.42-24.61c33.06,42.46,13.31-7,19.76-8.71,1-.26,11.52-7.13,17.87-11.86,2.91-2.16,4.94-3.88,4.74-4.31h0c-13.74-29.24-43.67-79.14-48.87-103.84a16.09,16.09,0,0,0-3.31-6.67c-7.68-9.73-28.62-52.34-48.45-94.42-15.61-33.17-30.51-66-37.68-82.27-.4-.91-.78-1.78-1.14-2.58-2.2-5-3.4-7.87-3.31-7.89-.38-1.87-.78-3.75-1.2-5.67-.13-.6-.26-1.22-.4-1.84-.41-1.88-.84-3.81-1.29-5.75-8-34.69,5.34-128.07,82.71-193.43s158.75-50.7,206.77-36,108.65,116,109,116.78,1.94,3.76,2.34,4.56,1.49,3.13,1.68,3.53c.12.24.41.9.76,1.68.65,1.45,1.49,3.35,1.84,4.17.09.18,1.13,2.66,1.55,3.72,1.17,2.88,4.4,11.68,4.61,12.32.35,1.11,12.87,39.5,13.87,39.94,3.26,1.43,6,3.83,8.6,6.21,1.5,1.36,3,2.75,4.56,4.19h0c7.49,7,14.69,14.91,18.42,23.91a35.42,35.42,0,0,1,1.73,5.28,30.71,30.71,0,0,1,.9,7.94h-2.57a97.49,97.49,0,0,0-19.31,1.72,49,49,0,0,0-7,2c.24,2.25.33,3.49.33,3.49l.72,6.46,0,.12,1.93,17.46L818.7,542l2.09,18.85s-18.36,51.48-16.88,93c0,.91.06,1.8.12,2.69H753.24a20.77,20.77,0,0,0-3.31,7.89c-5.2,29.2-35.14,88.16-48.86,122.73-.26.65,3.33,4,7.72,7.65,6.23,5.22,14.06,11.18,14.89,11.45,6.44,2-13.3,60.47,19.76,10.29,2.94-4.49,28.08,24.35,33.41,29.08s0,7.88,1.34,18.91,8-1.57,14.67-11c1.85-2.63,1.24-7-.72-12-2.12-5.48-5.83-11.79-9.64-17.59h0c-5.25-8-10.65-15-12.32-17.67-4-6.31.94-18.89,6.27-22,2.66-1.58,8.74,5.45,15.65,12.31,3.83,3.8,7.92,7.56,11.85,9.76,3.17,1.79,6.23,2.55,8.92,1.48,5.2-2,5.9-5.26,4.79-9.93-1.43-6.11-5.94-14.69-7.46-26.31-1-7.87,1.31-19.52,5.1-30.68,0,0,0,0,0-.06a126.16,126.16,0,0,1,8.31-19.25.61.61,0,0,0,.05-.12c4.76-8.68,9.76-14.38,13.26-13.2,3.28,1.1,5.7,5,7.28,9.74,2.94,8.79,3,20.62.43,23.69-3.91,4.63,1.11,22.81,8.8,26.56.26,3.12.8,5.55,1.69,6.85,2.33,3.51.33,1.83,1.66,5.83a32.68,32.68,0,0,0,4.65,9.58v0c5,6.48,9.39,1.85,7.35-4.26-2.67-8-1.34-29.35-1.34-29.35s0-2.67,6.67-5.33c3.43-1.38,7.26,8.92,11.62,18.5h0c4.11,9,8.7,17.41,13.88,14.82,10.67-5.33,2.52-66.68,13.19-62.68s8,1.33,10.67,16,1.34,20,10.68,32,0,16,6.67,17.34,24-13.34,29.34-22.67,8-44,13.34-52S991.55,701,990.21,694.28ZM293.86,542.21a59.7,59.7,0,0,0,6.67-8c2.67-5.33,2.67,0,2.67,0a51.92,51.92,0,0,1-2.67,8c-1.33,2.66-2.67,9.33-2.67,9.33S289.86,546.21,293.86,542.21Zm9.34,114.72c-1.33,4,0,1.34-6.67,0s-5.34-6.67-5.34-6.67.52-10.38,2.67-14.67c1.34-2.67,9.34,1.33,6.67,6.67S304.53,652.93,303.2,656.93Zm10.67-206.77c-2.67-1.33-4-16-4-16s-2.67-6.67,1.33-4,2.67,10.67,2.67,10.67S316.54,451.49,313.87,450.16Zm14.68,198.77c-1.34,2.67,0,5.33-5.34,0s-.95-18.87,5.34-14.68C332.55,636.92,329.88,646.26,328.55,648.93ZM880.82,440.82s-2.66,8-5.33,5.34-4-10.67-4-20ZM459.28,214s2.67,0,6.67-4c0,0,0-1.34,4,1.33s-2.67,5.34-2.67,5.34-4,4-9.34,0S459.28,214,459.28,214ZM428.6,232.72c1.33-6.67,8-5.34,8-5.34l2.67,1.33-8,9.34S427.26,239.39,428.6,232.72ZM361.9,255.4c1.33-1.34,5.33-16,10.67-18.68s-2.67-2.67,8-8,4-10.67,12-10.67,12-4,12-4h14.68c4,0,6.67,6.67,0,6.67s-14.68,2.67-14.68,6.67-1.33,1.33-6.67,4-6.67,6.67-8,10.68-8,2.66-12,8,1.34,5.34-5.33,8S360.56,256.73,361.9,255.4ZM811.08,701.62c-3.36,7.66-4.24,0-4.24,0,.71-1.35,5.71-5,7.68-6.44C813.88,695.94,812.8,697.67,811.08,701.62Zm79.08-192.76a47.53,47.53,0,0,1-1.33-9.34h5.33Zm6.67,21.34c-1.33,1.33-2.67-2.67-2.67-5.34s-.54-5.33,1.34-5.33C898.17,519.53,898.17,528.87,896.83,530.2Zm8,18.68c-1.34,0-4,1.33-4,0s-2.66-8,0-9.34,5.34,2.67,5.34,4S906.17,548.88,904.84,548.88ZM937.43,694.5c-1.08-.68-.7-2.91-1.75-5.23-2.83-6.29-4.44-16.58,1.17-20.33a8.6,8.6,0,0,1,1.26-.71c3.31-1.45-.62,6.08,1.8,9.7C942.48,681.8,941.86,690.32,937.43,694.5Zm11.43-56.24c-4,1.33-5.34-9.34-8-14.68s-1.34-12-1.34-14.67-4-6.67-8-12-1.34-12-1.34-12c6.67-2.66,12,8,14.68,13.35s4,5.33,8,9.33,6.67,12,6.67,17.35S952.86,636.92,948.86,638.26Z"/><g id="cou"><path class="cls-5" d="M1002.44,1082.82a.86.86,0,0,0,0-.16,280.94,280.94,0,0,0-4.5-37.58c0-.21-.08-.44-.13-.67-3.49-17.23-9-35.61-16.77-50.2q-1.08-2.06-2.24-4c-.62-1-1.23-2-1.86-3-14.36-22.78-33.56-36.63-55.39-45.66-7.35-2.79-14.52-4.9-21.3-7.06-2.37-.76-5-1.48-7.79-2.19-.39-.1-.77-.2-1.16-.28-3.11-.73-6.24-1.42-9.41-2.06l-4.84-.95c-1.69-.32-3.4-.63-5.11-.92l-3.48-.6q-3.16-.54-6.35-1c-3.72-.59-7.47-1.14-11.22-1.67-17.95-2.58-36.15-4.78-53.76-8.16-.91-.18-1.83-.35-2.73-.54a297.24,297.24,0,0,1-48.76-14.14c-15.08-6-29.24-13.67-37.42-23.1-4.42-5.07-7.07-10.65-7.22-16.75-.12-5.2.24-12.9.94-22.15.13-1.76.28-3.58.42-5.45.91-12.1,2.15-23.94,3.74-37.7-.56.39-1.12.78-1.7,1.15h0q-5.58,3.71-11.38,7.1c-4.43,2.56-8.94,5-13.52,7.16-1.73.83-3.46,1.63-5.21,2.4l-1.74.76c-1.18.5-2.35,1-3.53,1.47q-2.64,1.07-5.32,2l-1.8.64c-1.2.42-2.4.83-3.6,1.22s-2.42.77-3.63,1.13a134,134,0,0,1-78.92,0c-1.21-.36-2.43-.75-3.63-1.13s-2.41-.8-3.6-1.22l-1.8-.64q-2.69-1-5.32-2c-1.19-.48-2.37-1-3.53-1.47-.58-.25-1.17-.5-1.74-.76q-2.62-1.15-5.21-2.4c-4.6-2.2-9.11-4.6-13.52-7.16q-5.8-3.39-11.4-7.1c-.9-.6-1.81-1.21-2.7-1.84,1.45,13.11,2.73,25.85,3.57,36.94,0,.28,0,.56.07.84.19,2.23.36,4.4.52,6.48.67,9.07,1,16.61.89,21.73-.45,19-25.37,33-50.85,42.21A306.64,306.64,0,0,1,434.92,916c-28.43,5.68-80.53,10.34-105.84,18.41L324,936.07a5.36,5.36,0,0,0-.52.16c-23.47,7.35-50.69,16.39-72.93,54-12.95,21.89-21.87,55.83-23.68,94H1002.5C1002.49,1083.73,1002.46,1083.27,1002.44,1082.82ZM529.37,862.05c-.15,6.1-2.8,11.68-7.22,16.75A49.81,49.81,0,0,0,529.37,862.05Z"/><path class="cls-6" d="M706.1,796.75c-1.59,13.76-2.83,25.6-3.74,37.7-24.93,13.64-58.29,27.6-87.16,27.6-27.71,0-63-15.35-88.27-28.21,0-.28,0-.56-.07-.84-.84-11.09-2.12-23.83-3.57-36.94.89.63,1.8,1.24,2.7,1.84q5.6,3.71,11.4,7.1c4.41,2.56,8.92,5,13.52,7.16q2.58,1.25,5.21,2.4c.57.26,1.16.51,1.74.76,1.16.5,2.34,1,3.53,1.47q2.64,1.07,5.32,2l1.8.64c1.19.42,2.39.83,3.6,1.22s2.42.77,3.63,1.13a134,134,0,0,0,78.92,0c1.21-.36,2.43-.75,3.63-1.13s2.4-.8,3.6-1.22l1.8-.64q2.68-1,5.32-2c1.18-.48,2.35-1,3.53-1.47l1.74-.76c1.75-.77,3.48-1.57,5.21-2.4,4.58-2.2,9.09-4.6,13.52-7.16q5.81-3.39,11.38-7.1h0C705,797.53,705.54,797.14,706.1,796.75Z"/></g><path class="cls-7" d="M1006.27,1069.43c-10.63-128.6-102.57-141.27-177.4-151.58-24.5-3.38-47.63-6.56-66.24-13.3-2.85-1-5.41-2.24-7.91-3.42-2.2-1-4.49-2.13-7-3.06-.65,1.29-1.37,2.57-2.13,3.83-21,35-78.26,51.74-127.2,52.84q-4.07.07-8.07.08c-46.65,0-98.66-6.13-132.88-50.56q-1.44-1.89-2.84-3.85c-27.19,10.62-57.27,14.85-86.38,19-78,11-152.12,21.41-163.3,150.07q-.63,7.13-1,14.76v98.46h783.13v-98.46C1007,1079.1,1006.66,1074.18,1006.27,1069.43Z"/><path class="cls-8" d="M758.7,912.66c-21.49,37.94-63.8,58.71-129,63.39-9.35.63-18.48.94-27.14.94-95.23,0-125.73-36.89-143.41-60.69,1.62-.73,17.47-7.48,19-8.07,25,30.67,73.18,49.57,129.76,49.57,61.5,0,115.7-21,135.7-51.85C748.66,908.54,758.48,912.57,758.7,912.66Z"/><g id="oreille-right"><path class="cls-5" d="M881.13,525.24c-1.77-10.19-4-21.73-15-25.25-5.57-1.79-11.09-.67-16.22,2h0l-.24.12a35.46,35.46,0,0,0-6.61,4.43l-.92.76c-.47.39-.93.79-1.37,1.19l-.62.59c-.52.48-1,1-1.54,1.46-1,1-2.12,2.17-3.22,3.43a83.9,83.9,0,0,0-9.18,12.46A136.24,136.24,0,0,0,818.7,542c-15.21,35.9-35.56,105.36-24.92,107.5,2.72.54,6,2.52,10.13,4.4a47.06,47.06,0,0,0,5.24,2,36.4,36.4,0,0,0,8.07,1.59c10.35.83,13.86-5.77,16.49-10.16,1.68-2.78,12.26-29.56,20.78-38,6.94-6.84,17.56-24.81,21.08-34.12C879.24,565.59,883.48,538.79,881.13,525.24Z"/><path class="cls-9" d="M873.5,549.68a58,58,0,0,1-7.16,21.85c0,.15,0,.31-.05.46l.28-5c8.52-26.8-2.74-49.88-4.67-53.56l0,0c-.22-.48-.42-1-.62-1.43a21.18,21.18,0,0,1,7.07-4.32,9.54,9.54,0,0,1,1.63-.39l.59,1.42C871.29,512.8,875.2,534.73,873.5,549.68Z"/><path class="cls-9" d="M855.36,579.5c-1.4,5.35-7,12-11.68,15.14l-.46-1.44c8.41-20,1.76-30.5-2.13-34.5l-.06,0a15.4,15.4,0,0,0-1.69-1.52l0,.13-1.17-.93A181.07,181.07,0,0,1,845,537.68l1,1.26C847.94,542.12,859.71,562.86,855.36,579.5Z"/></g><g id="oreille-left"><path class="cls-5" d="M428.26,594.85c-7.87-27.12-18.9-56.57-26-68.44A84.44,84.44,0,0,0,393.13,514a30.65,30.65,0,0,0-3.69-4,72.14,72.14,0,0,0-8.69-6.67c-1.31-.85-2.15-1.36-2.15-1.36-.48-.25-1-.48-1.46-.69-4.72-2.15-9.73-2.91-14.78-1.29-11,3.52-13.18,15.06-14.95,25.25-2.35,13.55,1.89,40.35,5.56,50,3.52,9.31,14.14,27.28,21.08,34.12,8.52,8.41,19.1,35.19,20.78,38,2.63,4.39,6.14,11,16.49,10.16a36.69,36.69,0,0,0,9.74-2.15c6-2.16,10.24-5.16,13.7-5.85C441.14,648.25,436.39,622.78,428.26,594.85Z"/><path class="cls-9" d="M355,549.68a58,58,0,0,0,7.16,21.85c0,.15,0,.31.05.46l-.28-5c-8.52-26.8,2.74-49.88,4.67-53.56l0,0c.22-.48.42-1,.62-1.43a21.18,21.18,0,0,0-7.07-4.32,9.54,9.54,0,0,0-1.63-.39l-.59,1.42C357.25,512.8,353.34,534.73,355,549.68Z"/><path class="cls-9" d="M373.18,579.5c1.4,5.35,7,12,11.68,15.14l.46-1.44c-8.41-20-1.76-30.5,2.13-34.5l.06,0a15.4,15.4,0,0,1,1.69-1.52l0,.13,1.17-.93a181.07,181.07,0,0,0-6.87-18.66l-1.05,1.26C380.6,542.12,368.83,562.86,373.18,579.5Z"/></g><g id="tête"><path class="cls-5" d="M851,497.54v0h0c-.05.22-34.87,154.51-58.11,201.51-1.52,3.08-3.23,6.27-5.1,9.55s-3.92,6.65-6.13,10.08v0c-1.12,1.72-2.26,3.45-3.44,5.18v0q-2.68,3.95-5.62,7.94c-.65.89-1.32,1.78-2,2.68-4.71,6.24-9.88,12.58-15.47,18.83v0c-3.22,3.57-6.54,7.13-10,10.63h0a263.4,263.4,0,0,1-39,32.7l0,0c-.56.39-1.12.78-1.7,1.15h0q-5.58,3.71-11.38,7.1c-4.43,2.56-8.94,5-13.52,7.16-1.73.83-3.46,1.63-5.21,2.4l-1.74.76c-1.18.5-2.35,1-3.53,1.47q-2.64,1.07-5.32,2l-1.8.64c-1.2.42-2.4.83-3.6,1.22s-2.42.77-3.63,1.13a134,134,0,0,1-78.92,0c-1.21-.36-2.43-.75-3.63-1.13s-2.41-.8-3.6-1.22l-1.8-.64q-2.69-1-5.32-2c-1.19-.48-2.37-1-3.53-1.47-.58-.25-1.17-.5-1.74-.76q-2.62-1.15-5.21-2.4c-4.6-2.2-9.11-4.6-13.52-7.16q-5.8-3.39-11.4-7.1c-.9-.6-1.81-1.21-2.7-1.84l-.18-.12A263.86,263.86,0,0,1,485.28,764c-21.64-21.93-38.25-45.77-47.74-65-23.24-47-58.06-201.31-58.11-201.51h0c-.13-.5-.25-1-.38-1.5.05.16.1.3.16.46,2.53-1.09,13.3,2.1,20.3-2.78C402,492,403.88,484,405,481.66c17.7-39.62-2.76-64,1.74-85.52s22.59-38.58,22.59-38.58A36.41,36.41,0,0,0,444,360.27a27.34,27.34,0,0,0,9.65-1.7c4.67-1.68,8.45-4.13,14.36-5,9.34-1.34,2.67,1.33,12,9.34s13.34-2.67,30.69,0,18.67-9.34,22.68-9.34,6.67,1.33,12,2.67,6.67,4,13.34,8,8,0,13.34,5.34,1.34,4,2.67,9.33,5.34,4,12,5.34,6.67,2.67,13.34,4,10.67,0,13.34-2.67,4-4,9.33-5.33,5.34-4,9.34-8,5.34,1.34,12,4c6.67,9.33,18.67,16,24,16s4,0,6.67,2.67,12,0,16,0,8-1.33,14.67-2.67,8-4,12-2.66,9.34-4,10.67-5.34,8,1.33,12,0,2.66-2.67,18.67-10.67c3.1-1.55,6.09-3.19,8.94-4.87q-2.32,2.75-4.84,5.4c9.06,1.67,30.57,8.55,37.11,36.38C808.32,445.72,850.05,496.43,851,497.54Z"/></g><path id="bouche" class="cls-4" d="M546.49,705.67s47.59,5.81,63.49,5.86c17.3,0,73.24-5.86,73.24-5.86-16.17,13.8-34,27.08-74.28,27.34C572.89,733.25,563.66,719.78,546.49,705.67Z"/><g id="oeil_right"><g id="svga-group-eyesback-right"><path id="SvgjsPath4690" class="cls-10" d="M772.84,529.89c-39.32-39.5-80.05-32.88-103.05-5.28A32.33,32.33,0,0,0,666.28,542c.75,9,8.1,17.81,11.46,19.55a75,75,0,0,0,30.2,8.36,58.67,58.67,0,0,0,9.84,0,63.32,63.32,0,0,0,19.41-4.85c11.19-4.6,34.14-25.71,34.92-27.1l-.07,0C773.89,534.66,773.81,531.29,772.84,529.89Z"/></g><path id="SvgjsPath3831" class="cls-11" d="M748.05,545.53a34,34,0,1,1-23.87-41.8A33.93,33.93,0,0,1,748.05,545.53Z"/><path class="cls-12" d="M729.4,539.31a11.41,11.41,0,0,1-.4,2.87,12.37,12.37,0,0,1-15.54,8.7,13.14,13.14,0,0,1-9.15-15.78,5.58,5.58,0,0,1,.18-.58,12.37,12.37,0,0,1,15.35-8.15A13.19,13.19,0,0,1,729.4,539.31Z"/></g><g id="oeil_left"><g id="svga-group-eyesback-right-2" data-name="svga-group-eyesback-right"><path id="SvgjsPath4690-2" data-name="SvgjsPath4690" class="cls-13" d="M457.24,538l-.07,0c.78,1.39,23.74,22.5,34.92,27.1a63.39,63.39,0,0,0,19.41,4.85,58.68,58.68,0,0,0,9.84,0,75.08,75.08,0,0,0,30.21-8.36C554.91,559.81,562.25,551,563,542a32.23,32.23,0,0,0-3.5-17.39c-23-27.6-63.74-34.22-103.06,5.28C455.48,531.29,455.4,534.66,457.24,538Z"/></g><path id="SvgjsPath3831-2" data-name="SvgjsPath3831" class="cls-11" d="M505.11,503.73a34,34,0,1,1-23.87,41.8A33.94,33.94,0,0,1,505.11,503.73Z"/><path class="cls-12" d="M499.88,539.31a11.89,11.89,0,0,0,.4,2.87,12.37,12.37,0,0,0,15.54,8.7A13.12,13.12,0,0,0,525,535.1a5.54,5.54,0,0,0-.17-.58,12.38,12.38,0,0,0-15.35-8.15A13.2,13.2,0,0,0,499.88,539.31Z"/></g><g id="eyebrows-left"><path id="SvgjsPath3854" class="cls-14" d="M514.33,460.74c-17.71-2.41-85.05,18.77-85.05,18.77s67.19-34.07,95.08-28.65c20.76,4,57.61,25.67,50.85,37.1C569.76,497.17,552.79,466,514.33,460.74Z"/></g><g id="eyebrows-right"><path id="SvgjsPath3855" class="cls-14" d="M654.13,486.75c-6.86-12.26,30.38-33.74,54.21-36.38,28.48-3.15,91.7,21.84,91.7,21.84s-63.63-14-81.55-11.26C679.21,467.07,659.65,496.6,654.13,486.75Z"/></g><g id="nez"><path id="SvgjsPath4456" class="cls-15" d="M584.29,655.52c-3,8.26,20.13,17.17,28.89,17.72,9.5.59,36.12-11.6,31.6-20-4.74-8.79-22.53-1.14-30.2-1.14S588.28,644.5,584.29,655.52Z"/><path id="SvgjsPath4457" class="cls-9" d="M631,653.49c-2.23.64-8,3.89-7,6s6.24-2.14,8.33-2.74,8.18,2.18,8.42.09C641,654.45,634.13,652.6,631,653.49Zm-35.55.29c-1.74.2-8,3.83-7.11,5.35s3.95-1.57,7.67-1.57c2.83,0,7,1.83,7.79.23C604.74,655.86,597.58,653.52,595.47,653.78Z"/><path id="SvgjsPath4458" class="cls-16" d="M614.61,644.5a8.81,8.81,0,0,0,7.92-7.61c3-22.31-2.08-81-7.92-81-5.46,0-10,60.12-8.62,81,.35,5.13,5.59,7.61,8.62,7.61Z"/></g><path d="M371.87,448.11c.8,17.92,3.34,36.68,7.15,47.94A242.57,242.57,0,0,1,371.87,448.11Z"/><path id="hair_front" d="M858.75,432.13c0-.68,0-1.37,0-2.05,0-.12,0-.24,0-.36,0-1.18-.07-2.37-.12-3.54-.06-1.53-.14-3.05-.23-4.59,0-.12,0-.25,0-.37-.09-1.54-.2-3.06-.32-4.58,0-.1,0-.21,0-.32-.39-4.64-.9-9.26-1.54-13.82,0-.2-.05-.4-.08-.58-.21-1.5-.44-3-.68-4.47s-.52-3.14-.8-4.7-.59-3.11-.89-4.66-.64-3.09-1-4.62c-1.33-6-2.91-12-4.7-17.84q-.72-2.4-1.5-4.78c-.48-1.48-1-2.94-1.5-4.41-.44-1.27-.89-2.52-1.34-3.76-.14-.39-.28-.76-.43-1.12-.47-1.28-1-2.56-1.46-3.83-.57-1.44-1.14-2.88-1.74-4.3s-1.19-2.85-1.82-4.25-1.25-2.82-1.89-4.22c-1-2.24-2.1-4.45-3.19-6.64-.31-.63-.61-1.24-.93-1.86-.67-1.29-1.34-2.58-2-3.88-1.44-2.71-2.94-5.37-4.47-8-.77-1.32-1.55-2.64-2.35-3.94s-1.6-2.61-2.41-3.89c-1.63-2.56-3.3-5.07-5-7.56,0-.05-.06-.11-.1-.16-.86-1.23-1.71-2.44-2.58-3.66s-1.77-2.45-2.66-3.66a.14.14,0,0,1,0,0c-.91-1.22-1.83-2.42-2.77-3.62s-1.74-2.25-2.65-3.36c-.13-.17-.27-.33-.4-.51-.87-1.08-1.76-2.15-2.64-3.21l-.06-.06c-1-1.14-1.93-2.29-2.92-3.42v0c-1-1.14-2-2.29-3-3.41s-1.87-2-2.8-3.06l-.29-.3c-1-1.11-2.08-2.21-3.15-3.3s-2.14-2.17-3.22-3.24-2.17-2.12-3.26-3.18-2.42-2.28-3.65-3.4c-1-.93-2-1.85-3.08-2.77l0,0c-1.13-1-2.26-2-3.42-3q-3.47-3-7.06-5.79c-.65-.52-1.32-1-2-1.52-1.77-1.36-3.53-2.7-5.31-4-.15-.1-.28-.2-.42-.31-1.09-.79-2.2-1.57-3.31-2.36-2.12-1.5-4.26-2.94-6.43-4.35a2.2,2.2,0,0,0-.32-.21c-2.16-1.42-4.36-2.79-6.57-4.14l-.22-.13A246.33,246.33,0,0,0,532,208.23c-1.14.4-2.27.83-3.39,1.25-1.56.59-3.11,1.21-4.64,1.82-1.22.49-2.43,1-3.64,1.48l-3.07,1.32-3.71,1.67L510.89,217c-1.94.91-3.86,1.86-5.79,2.83L502.74,221q-2.06,1.06-4.11,2.18l-2.22,1.21c-2,1.14-4,2.27-6,3.46q-4,2.35-7.8,4.84c-2.26,1.45-4.49,2.95-6.69,4.48l-.8.55-.2.15c-1.08.76-2.16,1.52-3.23,2.29a4.4,4.4,0,0,1-.41.31q-3.67,2.7-7.28,5.52c-1.19,1-2.38,1.89-3.57,2.87l-.26.21c-1.08.9-2.16,1.8-3.23,2.71s-2.29,2-3.43,3c0,0,0,0,0,0-1,.92-2.06,1.84-3.08,2.77-1.22,1.12-2.44,2.26-3.64,3.4s-2.19,2.11-3.27,3.18-2.16,2.15-3.21,3.24-2.11,2.19-3.15,3.3l-.29.3c-.94,1-1.88,2-2.8,3.06s-2,2.27-3,3.41-2.14,2.48-3.2,3.75c-.82,1-1.63,2-2.43,3l-.4.51c-.9,1.09-1.76,2.2-2.62,3.31-1.12,1.44-2.23,2.89-3.31,4.36-.74,1-1.48,2-2.2,3s-1.61,2.27-2.4,3.42q-1.44,2.09-2.84,4.2c-.76,1.14-1.51,2.3-2.24,3.46q-2.24,3.49-4.35,7.09l-1,1.72a.89.89,0,0,0-.09.16c-.62,1.05-1.2,2.1-1.79,3.15-1.35,2.4-2.64,4.83-3.91,7.29-.31.61-.61,1.22-.92,1.84-.56,1.08-1.09,2.17-1.63,3.27s-1.18,2.48-1.76,3.73c-.84,1.79-1.64,3.6-2.43,5.42-.4.92-.8,1.84-1.17,2.76-.6,1.41-1.19,2.84-1.75,4.28-.22.55-.44,1.11-.65,1.66-.36.92-.71,1.84-1,2.76q-2.39,6.35-4.4,12.86c-.2.62-.39,1.26-.59,1.9-.35,1.15-.7,2.31-1,3.47-.4,1.39-.78,2.78-1.14,4.18a5.26,5.26,0,0,0-.15.53c-.33,1.27-.65,2.55-1,3.83-.74,3-1.42,6-2,9-.11.51-.2,1-.31,1.54-.2,1-.38,1.94-.56,2.92l-.24,1.3q-1.27,7.05-2.12,14.24c-.17,1.28-.31,2.57-.44,3.88q-.3,2.81-.52,5.64c-.09,1.11-.17,2.22-.24,3.34a1.62,1.62,0,0,0,0,.22q-.06,1-.12,2c-.08,1.28-.14,2.55-.19,3.83s-.09,2.36-.12,3.54c0,.12,0,.24,0,.36,0,.68,0,1.37,0,2.05,0,1.28,0,2.56,0,3.84,0,2.08,0,4.22.08,6.37,0,.68,0,1.36.05,2.05,0,.2,0,.4,0,.6,0,1,.1,2.08.14,3.12A242.56,242.56,0,0,0,379,496.06c.05.16.1.3.16.46,2.53-1.09,13.3,2.1,20.3-2.78C402,492,403.88,484,405,481.66c17.7-39.62-2.76-64,1.74-85.52s22.59-38.58,22.59-38.58A36.41,36.41,0,0,0,444,360.27a27.34,27.34,0,0,0,9.65-1.7c4.67-1.68,8.45-4.13,14.36-5,9.34-1.34,2.67,1.33,12,9.34s13.34-2.67,30.69,0,18.67-9.34,22.68-9.34,6.67,1.33,12,2.67,6.67,4,13.34,8,8,0,13.34,5.34,1.34,4,2.67,9.33,5.34,4,12,5.34,6.67,2.67,13.34,4,10.67,0,13.34-2.67,4-4,9.33-5.33,5.34-4,9.34-8,5.34,1.34,12,4c6.67,9.33,18.67,16,24,16s4,0,6.67,2.67,12,0,16,0,8-1.33,14.67-2.67,8-4,12-2.66,9.34-4,10.67-5.34,8,1.33,12,0,2.66-2.67,18.67-10.67a31.71,31.71,0,0,1,4.1.53c9.06,1.67,30.57,8.55,37.11,36.38,8.28,35.2,50,85.91,50.93,87A241.41,241.41,0,0,0,858.79,436C858.79,434.69,858.78,433.41,858.75,432.13Z"/><g id="glasses"><path d="M820.81,496.56c0-.4,0-.8-.06-1.19q-.07-1.33-.24-2.64c-.36-1.71-.82-3.82-1.41-6.54v-.05a23.29,23.29,0,0,0-2.58-5.44c-5.52-8.46-17.42-12.94-33.57-14.73a181.41,181.41,0,0,0-20.09-1h0c-18.21,0-39.55,2.07-62.19,4.93a143.58,143.58,0,0,0-15.18,2.7l0,0c-14.38,3.36-24.5,8.38-31.61,13.49-13.44,9.64-16.06,19.63-16.06,19.63a.06.06,0,0,1,0,0c-1.72,2.59-2.44,6.57-2.32,11.43.56,20.76,16.61,57.85,38,73.65,26.47,19.55,76.08,14.12,99.2,5.46s36.9-50.26,36.9-50.26a172.8,172.8,0,0,0,7.25-21.19c1-3.63,1.91-7.5,2.63-11.44l-.33,0c.57-3.47,1-6,1.44-7.88A65,65,0,0,0,820.81,496.56ZM798,546.26s-12.25,36.46-33,44-65.42,12.06-89.32-5.19-40.56-63-32.46-74.81c0,0,6.71-25.28,56.46-31.19S792.34,471.57,804,489,798,546.26,798,546.26Z"/><path class="cls-17" d="M798,546.27s-12.24,36.46-33,44-65.42,12.06-89.33-5.19-40.55-63-32.46-74.81c0,0,6.71-25.28,56.46-31.19S792.34,471.58,804,489,798,546.27,798,546.27Z"/><path d="M851,497.56,850,502c-5.45,2.81-10.45,7.35-14.53,12-6.38,0-7.27,0-16-.51h-.33c.57-3.47,1-6,1.44-7.89a59.68,59.68,0,0,0,0-12.82c-.36-1.7-.83-3.81-1.42-6.53,0,0,0,0,0-.06Z"/><path d="M589.49,505.76a1.47,1.47,0,0,0,0-.2c-.43-1.36-3.34-9.59-14-17.95-5.76-4.51-13.78-9.06-24.9-12.6a134.46,134.46,0,0,0-23.89-5.09c-16.33-2.06-32-3.7-46.29-4.45h0c-6.52-.34-12.75-.52-18.63-.46-24.94.22-43.59,4.43-50.94,15.69a22.87,22.87,0,0,0-2.57,5.44v.05c-.59,2.72-1.06,4.83-1.42,6.54a59.67,59.67,0,0,0,0,12.82c.39,1.92.87,4.41,1.44,7.88l-.33,0a167.38,167.38,0,0,0,9.88,32.63s13.79,41.6,36.9,50.26,72.73,14.09,99.2-5.46c21.75-16.06,38-54.08,38-74.62C591.85,511.8,591.11,508.18,589.49,505.76ZM551.58,585c-23.91,17.25-68.56,12.68-89.33,5.19s-33-44-33-44-17.72-39.92-6-57.31,54.61-15.82,104.37-9.92S584,510.22,584,510.22C592.13,522.05,575.47,567.79,551.58,585Z"/><path class="cls-17" d="M429.24,546.27s12.25,36.46,33,44,65.42,12.06,89.32-5.19,40.56-63,32.46-74.81c0,0-6.71-25.28-56.46-31.19s-92.67-7.45-104.37,9.93S429.24,546.27,429.24,546.27Z"/><path d="M376.28,497.56l1,4.42c5.44,2.81,10.44,7.35,14.53,12,6.37,0,7.27,0,16-.51h.33c-.57-3.47-1.05-6-1.44-7.89a59.66,59.66,0,0,1,0-12.82c.36-1.7.82-3.81,1.41-6.53,0,0,0,0,0-.06Z"/><path d="M613.19,501.7c-6.67-.42-24.56,4.07-24.56,4.07A51.15,51.15,0,0,1,591,517.25c5.72-7.09,20.24-6.58,22.14-6.48h.21c1.9-.1,16.41-.61,22.13,6.48a51.52,51.52,0,0,1,2.33-11.48S619.87,501.28,613.19,501.7Z"/></g></g><path class="cls-18" d="M615.55,1231.1A615.71,615.71,0,0,1,376,48.38,615.7,615.7,0,0,1,855.16,1182.72,611.79,611.79,0,0,1,615.55,1231.1Zm0-1203.86c-324.4,0-588.31,263.91-588.31,588.31s263.91,588.31,588.31,588.31S1203.86,940,1203.86,615.55,940,27.24,615.55,27.24Z"/></g></g></g></svg>