<svg xmlns="http://www.w3.org/2000/svg" xmlns:xlink="http://www.w3.org/1999/xlink" viewBox="0 0 288.56 556.51"><defs><style>.cls-1{fill:url(#Dégradé_sans_nom_22);}.cls-2{fill:url(#Dégradé_sans_nom_22-2);}.cls-3{fill:url(#Dégradé_sans_nom_22-3);}.cls-4{fill:url(#Dégradé_sans_nom_22-4);}</style><linearGradient id="Dégradé_sans_nom_22" x1="-1.24" y1="0.72" x2="122.89" y2="215.7" gradientUnits="userSpaceOnUse"><stop offset="0" stop-color="#f1728b"/><stop offset="1" stop-color="#c76a9b"/></linearGradient><linearGradient id="Dégradé_sans_nom_22-2" x1="168.1" y1="406.84" x2="263.02" y2="571.25" xlink:href="#Dégradé_sans_nom_22"/><linearGradient id="Dégradé_sans_nom_22-3" x1="94.82" y1="192.59" x2="193.74" y2="363.92" xlink:href="#Dégradé_sans_nom_22"/><linearGradient id="Dégradé_sans_nom_22-4" x1="125.22" y1="365.35" x2="167.46" y2="438.5" xlink:href="#Dégradé_sans_nom_22"/></defs><g id="Calque_2" data-name="Calque 2"><g id="Calque_1-2" data-name="Calque 1"><polygon class="cls-1" points="175.2 123.67 175.2 185.5 0 185.5 0 0 58.4 0 58.4 123.67 175.2 123.67"/><polygon class="cls-2" points="113.36 494.67 113.36 556.51 288.56 556.51 288.56 371 230.16 371 230.16 494.67 113.36 494.67"/><polygon class="cls-3" points="288.56 123.67 288.56 309.17 61.83 309.17 61.83 432.84 0 432.84 0 247.34 226.72 247.34 226.72 123.67 288.56 123.67"/><rect class="cls-4" x="115.42" y="371" width="61.83" height="61.83"/></g></g></svg>