<svg xmlns="http://www.w3.org/2000/svg" viewBox="0 0 134.62 112.58"><defs><style>.cls-1{fill:#ea483d;}.cls-2{fill:#fadd49;}.cls-3{fill:#c76a9b;}.cls-4{fill:#fff;}.cls-5{fill:#1a1a1a;}</style></defs><g id="Calque_2" data-name="Calque 2"><g id="sv"><path d="M71.79,41.21H60a4.8,4.8,0,0,1-4.8-4.8v-7.6A4.8,4.8,0,0,1,60,24H71.79a4.8,4.8,0,0,1,4.79,4.79v7.6A4.8,4.8,0,0,1,71.79,41.21ZM60,26a2.8,2.8,0,0,0-2.8,2.79v7.6a2.81,2.81,0,0,0,2.8,2.8H71.79a2.8,2.8,0,0,0,2.79-2.8v-7.6A2.79,2.79,0,0,0,71.79,26Z"/><path d="M96,79.92a28.23,28.23,0,0,1-6.63-.72l.5-1.93c.12,0,11.59,2.87,21.49-3.89,7.81-5.34,12.62-15.11,14.3-29l2,.24c-1.74,14.54-6.85,24.79-15.18,30.46A29.05,29.05,0,0,1,96,79.92Z"/><path d="M5.52,35.55C5.49,35.27,2.91,7.32,30.18,1a24.87,24.87,0,0,1,7.94-.9C57.74,1.89,63.93,14.81,65.66,25.33l-2,.33c-2.36-14.29-11-22.24-25.76-23.61a23.11,23.11,0,0,0-7.3.86C5.1,8.86,7.4,34.26,7.51,35.34Z"/><path d="M6.5,33.71a6.5,6.5,0,1,0,6.5,6.5A6.51,6.51,0,0,0,6.5,33.71Zm0,11a4.5,4.5,0,1,1,4.5-4.5A4.51,4.51,0,0,1,6.5,44.71Z"/><circle class="cls-1" cx="6.5" cy="40.21" r="4.5"/><path d="M127.62,32.46a7,7,0,1,0,7,7A7,7,0,0,0,127.62,32.46Zm0,12a5,5,0,1,1,5-5A5,5,0,0,1,127.62,44.46Z"/><circle class="cls-2" cx="127.62" cy="39.46" r="5"/><polygon class="cls-3" points="66.14 35.44 45.52 77.29 54.6 100.09 79.56 100.09 88 76.04 66.14 35.44"/><path d="M80.1,100.84h-26L44.7,77.26,66.11,33.81,88.81,76Zm-25-1.5H79l8.15-23.23-21-39L46.34,77.32Z"/><circle class="cls-4" cx="66.76" cy="74.33" r="6.56"/><path d="M66.76,81.63a7.31,7.31,0,1,1,7.31-7.3A7.32,7.32,0,0,1,66.76,81.63Zm0-13.11a5.81,5.81,0,1,0,5.81,5.81A5.81,5.81,0,0,0,66.76,68.52Z"/><rect class="cls-5" x="51.37" y="101.81" width="30.41" height="10.77" rx="5.39"/></g></g></svg>