<svg xmlns="http://www.w3.org/2000/svg" viewBox="0 0 311.08 311.08"><defs><style>.cls-1{fill:#EA483D;}.cls-2{fill:#fff;}</style></defs><g id="Calque_2" data-name="Calque 2"><g id="Objects"><circle class="cls-1" cx="155.54" cy="155.54" r="155.54" transform="translate(-64.43 155.54) rotate(-45)"/><path class="cls-2" d="M192.84,239.61a2.8,2.8,0,0,1-2.42,3.13l-42.21,6.44a2.81,2.81,0,0,1-3.24-2.27l-.59-3.87a2.81,2.81,0,0,1,2.42-3.13L189,233.48a2.79,2.79,0,0,1,3.24,2.27Z"/><path class="cls-2" d="M190.22,253.65a2.54,2.54,0,0,1-1.86,3l-34,5.18a2.54,2.54,0,0,1-2.69-2.35l-.59-3.87a2.54,2.54,0,0,1,1.87-3l34-5.19a2.54,2.54,0,0,1,2.68,2.36Z"/><path class="cls-2" d="M181,261.67a9.15,9.15,0,1,1-18.1,2.76"/><path class="cls-2" d="M193.09,225.64l-51.71,7.88c-3.3.51-6.37-2.32-7-6.43a8.71,8.71,0,0,1,.58-4.82c-3.21-12.4-13-22.08-20.25-29.2a82.27,82.27,0,0,1-7-7.49,64.2,64.2,0,0,1-12.52-55.39A62.09,62.09,0,0,1,105,108.62a60.33,60.33,0,0,1,17-16.15,59.19,59.19,0,0,1,46.74-7.12,60.23,60.23,0,0,1,21.07,10.34,62.36,62.36,0,0,1,15.81,17.65,64.07,64.07,0,0,1,6.63,50.56l.23,0-1.34,3.44c-.3.85-.62,1.7-1,2.53a81.4,81.4,0,0,1-4.5,9.19c-4.68,8.7-11,20.49-10.68,33.14a8.42,8.42,0,0,1,2.41,5.23C198.2,222.54,195.81,225.23,193.09,225.64ZM141,227.08l50.11-7.64a5.38,5.38,0,0,0-.06-1,6.3,6.3,0,0,0-.3-1.21l-1.9-.3-.19-2.54c-1.12-15.15,6.08-28.55,11.34-38.33a77.38,77.38,0,0,0,4.15-8.41l0-.09c.31-.77.61-1.56.89-2.36v0a57.81,57.81,0,0,0-5-48.53,56,56,0,0,0-14.19-15.85,54,54,0,0,0-18.84-9.25,52.8,52.8,0,0,0-41.66,6.35,54,54,0,0,0-15.24,14.44,56.09,56.09,0,0,0-8.82,19.36,57.72,57.72,0,0,0,11.28,49.85l.06.08a77.88,77.88,0,0,0,6.5,6.86c8,7.92,19,18.76,22.3,33.6l.34,1.56-1,1.19a2.22,2.22,0,0,0-.11,1.28A2.68,2.68,0,0,0,141,227.08Z"/><path class="cls-2" d="M142.21,68.13a3.22,3.22,0,0,1-3.66-2.69l-3.92-25.73a3.21,3.21,0,1,1,6.35-1l3.92,25.73A3.22,3.22,0,0,1,142.21,68.13Z"/><path class="cls-2" d="M253.42,127.79l-25.73,3.92a3.21,3.21,0,0,1-1-6.35l25.73-3.92a3.21,3.21,0,0,1,1,6.35Z"/><path class="cls-2" d="M79.66,154.27l-25.73,3.92a3.21,3.21,0,0,1-1-6.35l25.73-3.92a3.21,3.21,0,0,1,1,6.35Z"/><path class="cls-2" d="M196.66,74.91a3.17,3.17,0,0,1-2.16-.45,3.2,3.2,0,0,1-1.05-4.41L207.12,47.9a3.21,3.21,0,1,1,5.46,3.37L198.91,73.42A3.22,3.22,0,0,1,196.66,74.91Z"/><path class="cls-2" d="M91.6,90.92A3.2,3.2,0,0,1,89,90.17L69.36,73.1a3.21,3.21,0,0,1,4.21-4.85L93.22,85.32a3.21,3.21,0,0,1-1.62,5.6Z"/></g></g></svg>
